<svg width="488" height="452" viewBox="0 0 488 452" fill="none" xmlns="http://www.w3.org/2000/svg">
<path d="M408.831 195.058C415.331 180.558 424.331 166.058 435.831 154.558C444.831 145.558 467.831 125.558 482.331 134.058C506.831 148.058 431.831 188.058 419.831 193.058C416.331 194.558 412.831 196.058 409.331 197.058" fill="#98C163"/>
<path d="M375.331 217.558C368.831 208.058 365.331 197.558 365.331 185.558C365.331 173.058 368.831 148.558 383.331 144.558C400.331 139.558 395.831 169.058 392.831 178.558C388.831 191.558 379.331 201.558 376.331 214.558C376.331 215.558 375.831 216.058 375.831 217.558" fill="#98C163"/>
<path d="M394.831 270.058C399.331 264.558 402.331 254.558 405.831 248.058C414.331 232.558 425.831 216.058 440.331 206.558C450.331 200.058 470.331 193.058 470.331 212.058C470.331 228.058 449.331 247.058 437.331 255.558C425.331 263.558 411.831 272.058 396.831 271.058" fill="#98C163"/>
<path d="M342.831 283.558C338.831 279.558 335.831 266.558 333.831 259.558C329.831 246.558 327.331 233.058 334.831 220.058C341.331 209.058 356.831 204.558 359.831 220.558C362.331 235.558 351.331 251.558 347.331 265.558C345.831 271.558 342.831 278.058 343.331 284.058" fill="#98C163"/>
<path d="M332.581 423.058C336.101 395.468 337.391 367.598 342.761 340.258C348.141 312.828 358.691 284.848 369.891 259.278C380.521 235.038 395.831 212.488 413.901 193.218C431.241 174.718 450.751 154.608 472.961 142.138C474.371 141.348 473.111 139.188 471.701 139.978C449.851 152.248 432.141 171.458 414.531 188.978C394.821 208.588 379.231 232.818 367.731 258.018C356.531 282.578 347.071 309.728 341.101 336.038C334.621 364.568 333.771 394.108 330.081 423.058C329.881 424.658 332.381 424.638 332.581 423.058Z" fill="#193500"/>
<path d="M383.751 158.428C374.401 179.588 367.181 212.008 381.251 232.688C382.151 234.018 384.32 232.768 383.41 231.428C369.88 211.548 376.87 180.128 385.91 159.688C386.55 158.228 384.401 156.958 383.751 158.428Z" fill="#193500"/>
<path d="M457.951 212.178C445.881 226.698 432.671 240.158 418.151 252.238C402.051 265.638 380.151 280.528 358.831 282.808C357.241 282.978 357.231 285.478 358.831 285.308C377.901 283.268 396.471 271.558 411.621 260.488C429.641 247.328 445.491 231.058 459.711 213.938C460.741 212.708 458.981 210.938 457.951 212.178Z" fill="#193500"/>
<path d="M349.531 310.228C341.971 282.338 341.111 252.068 350.031 224.388C350.531 222.848 348.12 222.198 347.63 223.728C338.56 251.818 339.45 282.578 347.13 310.888C347.55 312.448 349.961 311.788 349.531 310.228Z" fill="#193500"/>
<path d="M384.151 177.848C381.741 177.848 381.741 181.578 384.151 181.578C386.561 181.578 386.561 177.848 384.151 177.848Z" fill="#193500"/>
<path d="M386.641 170.368C384.231 170.368 384.231 174.108 386.641 174.108C389.051 174.108 389.051 170.368 386.641 170.368Z" fill="#193500"/>
<path d="M377.181 164.888C374.771 164.888 374.771 168.628 377.181 168.628C379.591 168.628 379.591 164.888 377.181 164.888Z" fill="#193500"/>
<path d="M452.521 160.208C449.861 160.208 449.861 164.338 452.521 164.338C455.191 164.338 455.191 160.208 452.521 160.208Z" fill="#193500"/>
<path d="M458.581 156.348C455.921 156.348 455.921 160.478 458.581 160.478C461.251 160.478 461.251 156.348 458.581 156.348Z" fill="#193500"/>
<path d="M454.731 144.228C452.061 144.228 452.061 148.358 454.731 148.358C457.391 148.358 457.391 144.228 454.731 144.228Z" fill="#193500"/>
<path d="M431.671 230.608C429.251 230.608 429.251 234.378 431.671 234.378C434.101 234.378 434.101 230.608 431.671 230.608Z" fill="#193500"/>
<path d="M435.691 221.568C433.261 221.568 433.261 225.338 435.691 225.338C438.121 225.338 438.121 221.568 435.691 221.568Z" fill="#193500"/>
<path d="M443.231 219.558C440.801 219.558 440.801 223.328 443.231 223.328C445.661 223.328 445.661 219.558 443.231 219.558Z" fill="#193500"/>
<path d="M446.241 234.628C443.811 234.628 443.811 238.398 446.241 238.398C448.671 238.398 448.671 234.628 446.241 234.628Z" fill="#193500"/>
<path d="M450.76 229.098C448.33 229.098 448.33 232.868 450.76 232.868C453.19 232.868 453.19 229.098 450.76 229.098Z" fill="#193500"/>
<path d="M351.251 238.688C348.921 238.688 348.921 242.298 351.251 242.298C353.571 242.298 353.571 238.688 351.251 238.688Z" fill="#193500"/>
<path d="M353.171 231.478C350.851 231.478 350.851 235.088 353.171 235.088C355.501 235.088 355.501 231.478 353.171 231.478Z" fill="#193500"/>
<path d="M341.161 229.558C338.831 229.558 338.831 233.168 341.161 233.168C343.481 233.168 343.481 229.558 341.161 229.558Z" fill="#193500"/>
<path d="M59.1402 384.221C52.9102 368.331 52.9702 351.071 49.7502 334.471C45.9002 314.621 43.9802 294.351 42.2002 274.231C38.8202 236.011 38.7202 197.441 44.5402 159.461C49.3102 128.331 57.9202 96.451 74.5702 69.511C88.0602 47.711 104.61 26.891 114.76 3.22096C115.39 1.76096 113.24 0.480979 112.6 1.96098C102.16 26.321 85.0602 47.801 71.1802 70.241C54.2202 97.671 46.4202 130.761 41.5802 162.331C35.9102 199.331 36.5902 237.031 39.7002 274.231C41.3002 293.351 43.4202 312.471 46.6602 331.391C49.6802 349.051 50.1302 368.071 56.7402 384.891C57.3202 386.371 59.7402 385.731 59.1402 384.221Z" fill="#4A9E2F"/>
<path d="M53.1903 117.891C53.5503 105.111 52.1203 92.481 54.7903 79.851C57.1403 68.741 62.6503 58.361 68.9203 49.021C81.3203 30.581 99.5003 16.471 116.16 2.11097C115.45 1.81097 114.74 1.52096 114.02 1.22096C115.49 27.791 104.11 54.0709 87.2203 74.2409C75.2503 88.5209 59.0303 100.101 50.8603 117.261C50.1703 118.711 52.3303 119.981 53.0203 118.521C62.3303 98.971 81.8703 86.451 94.3303 69.101C108.51 49.351 117.88 25.781 116.52 1.22096C116.46 0.100955 115.23 -0.379019 114.39 0.340981C97.3703 15.021 79.9003 29.321 66.7703 47.761C59.9603 57.321 55.5403 67.9609 52.3803 79.1809C48.8803 91.6209 51.0503 105.181 50.6903 117.891C50.6403 119.501 53.1403 119.501 53.1903 117.891Z" fill="#4A9E2F"/>
<path d="M41.6902 181.931C33.3002 163.921 22.2602 147.591 20.2402 127.331C18.4302 109.101 24.2002 90.7809 24.5202 72.5609C23.7102 72.6709 22.8902 72.781 22.0702 72.891C28.6302 109.581 38.3702 145.711 38.6902 183.221C38.7002 184.831 41.2002 184.841 41.1902 183.221C40.8702 145.491 31.0802 109.141 24.4802 72.221C24.2202 70.791 22.0502 71.1909 22.0202 72.5609C21.6802 91.9609 15.2002 111.731 18.1402 131.151C21.0302 150.281 31.5002 165.951 39.5302 183.191C40.2102 184.651 42.3602 183.381 41.6902 181.931Z" fill="#4A9E2F"/>
<path d="M39.8102 213.551C45.6802 173.021 81.5802 144.701 106.82 115.441C106.11 115.151 105.4 114.851 104.69 114.561C105.9 134.691 94.8702 154.221 83.8202 170.291C72.0402 187.421 54.1002 196.661 39.0602 210.341C37.8602 211.431 39.6302 213.191 40.8202 212.111C57.0002 197.391 74.9302 187.621 87.5902 169.221C98.3002 153.651 108.36 133.971 107.19 114.561C107.13 113.561 105.82 112.791 105.06 113.671C79.5802 143.201 43.3302 171.941 37.4002 212.891C37.1702 214.471 39.5802 215.141 39.8102 213.551Z" fill="#4A9E2F"/>
<path d="M40.8202 263.011C26.1602 250.741 18.6202 231.821 12.6002 214.191C6.27025 195.651 2.17024 175.521 2.52024 155.891C1.75024 156.101 0.970242 156.311 0.190242 156.521C16.3802 190.421 29.3602 225.491 37.4002 262.221C37.7502 263.801 40.1602 263.131 39.8102 261.561C31.7202 224.611 18.6202 189.351 2.35025 155.261C1.79025 154.091 0.0502435 154.721 0.0202435 155.891C-0.349756 176.821 4.39024 197.881 11.1202 217.591C16.9702 234.711 24.8902 252.921 39.0602 264.771C40.2802 265.801 42.0602 264.041 40.8202 263.011Z" fill="#4A9E2F"/>
<path d="M44.5202 294.561C46.7202 278.041 55.9902 264.681 62.3702 249.671C68.5402 235.151 72.1402 219.701 78.3502 205.191C77.5802 204.981 76.8002 204.771 76.0202 204.561C78.2802 222.281 77.0002 240.091 72.5902 257.401C68.0102 275.361 56.5802 282.721 43.0602 293.671C41.8002 294.691 43.5802 296.441 44.8202 295.441C56.6002 285.901 67.8302 279.161 73.1402 264.221C79.8102 245.511 81.0202 224.121 78.5202 204.561C78.3902 203.501 76.7502 202.631 76.1902 203.931C69.5002 219.571 65.4202 236.151 58.7702 251.811C52.5902 266.351 44.1602 278.541 42.0202 294.561C41.8102 296.151 44.3102 296.131 44.5202 294.561Z" fill="#4A9E2F"/>
<path d="M90.6902 22.561C91.0702 27.681 91.9402 32.7509 92.0202 37.8909C92.0402 38.7609 92.8102 39.2409 93.6102 39.1009C99.4502 38.0209 105.05 35.9209 110.94 35.1009C112.53 34.8809 111.85 32.4709 110.28 32.6909C104.38 33.5109 98.7802 35.6109 92.9402 36.6909C93.4702 37.0909 94.0002 37.4909 94.5202 37.8909C94.4402 32.7509 93.5702 27.681 93.1902 22.561C93.0702 20.961 90.5702 20.951 90.6902 22.561Z" fill="#4A9E2F"/>
<path d="M72.3603 42.231C72.7303 49.481 73.4103 56.691 74.4003 63.891C74.4803 64.461 75.1103 64.771 75.6103 64.811C83.6703 65.351 92.2603 62.061 99.6003 59.101C101.08 58.501 100.44 56.081 98.9403 56.691C93.5703 58.851 88.0403 60.621 82.3703 61.791C80.8203 62.111 79.2603 62.271 77.6903 62.371C75.6303 62.501 76.1003 57.621 75.9003 55.821C75.4003 51.301 75.0903 46.771 74.8603 42.231C74.7703 40.621 72.2703 40.611 72.3603 42.231Z" fill="#4A9E2F"/>
<path d="M58.6902 63.561C58.4802 70.851 59.9602 78.491 62.7402 85.221C62.9702 85.801 63.5802 86.371 64.2702 86.101C70.4902 83.681 77.0602 82.5309 83.6102 81.4309C85.1902 81.1709 84.5202 78.761 82.9402 79.021C76.3902 80.121 69.8202 81.271 63.6102 83.691C64.1202 83.981 64.6302 84.271 65.1402 84.561C62.4402 78.001 60.9802 70.651 61.1902 63.561C61.2402 61.941 58.7402 61.951 58.6902 63.561Z" fill="#4A9E2F"/>
<path d="M104.07 117.231C101.55 126.751 94.7602 134.861 89.5802 143.111C83.5402 152.741 76.3802 161.411 68.7102 169.761C58.2302 181.191 44.5402 194.551 38.7402 209.231C38.1402 210.731 40.5602 211.371 41.1402 209.891C48.5702 191.131 67.0702 176.271 79.7302 161.071C84.8502 154.921 89.3102 148.251 93.5502 141.481C98.3602 133.821 104.14 126.761 106.48 117.891C106.89 116.331 104.48 115.671 104.07 117.231Z" fill="#4A9E2F"/>
<path d="M21.7402 78.891C24.3702 96.061 22.4902 113.551 26.4002 130.561C28.1602 138.221 31.5802 145.501 33.9002 153.001C36.3902 161.061 36.3002 170.481 37.3602 178.891C37.5502 180.471 40.0602 180.491 39.8602 178.891C39.0302 172.301 38.7102 165.581 37.6902 159.031C36.2902 150.081 32.5502 141.801 29.7602 133.231C24.0302 115.601 26.9302 96.361 24.1402 78.231C23.9002 76.641 21.4902 77.311 21.7402 78.891Z" fill="#4A9E2F"/>
<path d="M76.0702 209.231C70.8002 238.211 61.8102 267.211 43.3902 290.671C42.4102 291.931 44.1602 293.711 45.1602 292.441C63.8702 268.601 73.1202 239.361 78.4802 209.891C78.7702 208.311 76.3602 207.641 76.0702 209.231Z" fill="#4A9E2F"/>
<path d="M1.74024 163.221C3.08024 170.891 6.93024 177.681 8.30024 185.421C9.89024 194.411 13.2602 203.271 16.4402 211.811C22.5702 228.291 32.0502 243.431 36.4002 260.561C36.8002 262.121 39.2102 261.451 38.8102 259.891C34.4702 242.821 25.3002 227.441 18.8502 211.141C15.8502 203.571 13.4602 195.701 11.3202 187.851C10.1702 183.671 9.77024 179.391 8.48024 175.231C7.14024 170.901 4.94024 167.101 4.14024 162.561C3.87024 160.971 1.46024 161.651 1.74024 163.221Z" fill="#4A9E2F"/>
<path d="M315.305 418.659C305.305 417.989 288.635 403.329 280.635 397.329C268.635 387.989 257.965 374.659 249.965 361.329C233.965 335.989 225.305 309.329 232.635 279.329C245.305 224.659 315.965 195.329 348.635 250.659C366.635 281.329 360.635 322.659 351.965 355.329C347.965 368.659 333.305 423.989 314.635 421.329" fill="#4A9E2F"/>
<path d="M289.425 240.989C298.615 277.289 291.325 315.379 296.865 352.229C302.145 387.339 316.535 419.769 333.555 450.619C334.335 452.039 336.495 450.779 335.715 449.359C318.675 418.479 305.045 386.539 299.275 351.559C293.205 314.699 301.055 276.759 291.845 240.329C291.445 238.769 289.035 239.429 289.425 240.989Z" fill="#193500"/>
<path d="M269.085 255.539C276.765 265.389 286.745 273.029 294.415 282.879C294.825 283.399 295.765 283.329 296.185 282.879C305.975 272.399 311.075 258.679 320.855 248.209C321.955 247.029 320.185 245.259 319.085 246.439C311.305 254.779 306.395 265.029 300.025 274.379C296.425 279.659 295.695 280.269 291.895 275.889C289.675 273.319 287.175 270.989 284.745 268.619C279.855 263.859 275.055 259.169 270.855 253.779C269.865 252.509 268.105 254.289 269.085 255.539Z" fill="#193500"/>
<path d="M256.415 276.209C262.695 282.629 268.455 289.499 274.415 296.209C280.495 303.039 289.335 307.009 295.755 313.539C296.195 313.989 297.085 314.069 297.515 313.539C310.645 297.519 327.765 285.629 342.185 270.879C343.315 269.719 341.545 267.949 340.415 269.109C327.505 282.329 312.465 293.249 299.915 306.849C295.875 311.229 294.885 309.009 290.805 305.799C286.765 302.619 282.455 299.849 278.475 296.569C270.895 290.329 265.055 281.479 258.185 274.439C257.055 273.289 255.295 275.059 256.415 276.209Z" fill="#193500"/>
<path d="M247.755 301.539C263.015 318.909 278.275 336.409 297.335 349.739C297.765 350.039 298.515 349.949 298.855 349.539C309.115 337.129 318.895 324.319 329.515 312.209C330.575 310.999 328.815 309.229 327.755 310.439C321.985 317.009 316.465 323.759 310.995 330.569C307.895 334.429 304.815 338.299 301.705 342.149C296.515 348.579 293.175 343.779 287.965 339.519C273.685 327.859 261.645 313.569 249.515 299.779C248.455 298.559 246.695 300.339 247.755 301.539Z" fill="#193500"/>
<path d="M263.085 346.879C274.795 359.789 288.205 371.469 304.005 379.069C304.615 379.359 305.355 379.249 305.715 378.619C313.495 364.939 323.195 352.599 332.855 340.209C333.835 338.949 332.075 337.169 331.085 338.439C327.645 342.859 304.765 376.669 302.505 375.589C288.005 368.609 275.565 356.919 264.855 345.109C263.765 343.909 262.005 345.689 263.085 346.879Z" fill="#193500"/>
<path d="M47.0641 352.29C41.0641 347.29 40.0641 333.79 38.0641 326.29C33.5641 308.79 30.5641 291.29 30.0641 272.79C29.5641 263.79 31.5641 190.79 51.5641 209.29C61.0641 217.29 63.0641 234.79 64.5641 245.79C65.5641 254.29 65.5641 276.79 72.5641 282.79C84.5641 293.79 84.0641 241.79 83.5641 235.29C83.0641 222.79 82.5641 211.29 86.5641 199.29C88.0641 194.29 93.5641 175.29 101.564 176.29C116.064 178.79 113.564 230.29 118.564 240.79C123.564 250.79 131.564 253.79 134.564 241.29C136.564 231.29 133.564 220.79 131.564 211.29C129.064 195.29 124.564 167.79 136.564 153.79C151.564 136.29 158.064 186.29 159.064 194.29C160.564 202.79 161.564 215.29 172.064 205.79C179.064 199.79 182.064 187.79 186.064 179.79C192.564 165.79 206.064 139.79 223.564 136.29C245.564 132.29 229.064 170.79 224.564 178.79C215.564 194.29 195.064 211.79 191.564 229.79C189.564 240.79 197.564 236.79 204.564 233.29C213.064 228.79 220.564 223.29 230.064 221.79C236.564 220.79 246.564 222.29 248.064 230.29C249.564 238.29 239.064 245.79 233.564 249.79C217.064 261.29 194.564 264.29 179.064 276.79C167.564 286.79 176.564 290.29 187.564 287.79C199.064 284.79 209.564 279.79 221.564 278.79C230.064 278.29 242.564 277.29 247.564 286.29C251.564 293.29 247.064 300.79 241.064 305.29C224.564 316.79 201.064 317.29 182.064 321.79C178.064 322.79 159.064 327.79 164.064 334.79C168.564 340.29 189.564 334.79 195.064 334.79C203.064 334.29 217.564 331.79 223.564 339.29C230.064 348.79 218.564 354.29 211.064 355.79C192.564 360.79 171.564 357.79 152.564 358.29C123.564 359.29 94.0641 361.29 64.5641 358.29C57.5641 357.79 50.0641 356.79 45.5641 350.29" fill="#193500"/>
<path d="M247.564 286.29C242.564 277.29 230.064 278.29 221.564 278.79C209.564 279.79 199.064 284.79 187.564 287.79C176.564 290.29 167.564 286.79 179.064 276.79C194.564 264.29 217.064 261.29 233.564 249.79C239.064 245.79 249.564 238.29 248.064 230.29C246.564 222.29 236.564 220.79 230.064 221.79C220.564 223.29 213.064 228.79 204.564 233.29C197.564 236.79 189.564 240.79 191.564 229.79C195.064 211.79 215.564 194.29 224.564 178.79C228.644 171.55 242.554 139.3 228.814 136.24C226.704 146.45 220.154 155.29 213.914 163.43C206.684 172.88 200.514 182.85 194.034 192.82C178.664 216.43 162.354 239.42 144.064 260.89C126.984 280.95 108.004 299.64 88.6741 317.53C75.2441 329.96 61.0641 341.4 45.2041 350.25C45.7641 351.03 46.3741 351.72 47.0641 352.29L45.5641 350.29C50.0641 356.79 57.5641 357.79 64.5641 358.29C94.0641 361.29 123.564 359.29 152.564 358.29C171.564 357.79 192.564 360.79 211.064 355.79C218.564 354.29 230.064 348.79 223.564 339.29C217.564 331.79 203.064 334.29 195.064 334.79C189.564 334.79 168.564 340.29 164.064 334.79C159.064 327.79 178.064 322.79 182.064 321.79C201.064 317.29 224.564 316.79 241.064 305.29C247.064 300.79 251.564 293.29 247.564 286.29Z" fill="#122300"/>
<path d="M227.484 140.16C205.594 181.27 177.104 217.94 147.824 253.98C118.274 290.35 85.0641 322.85 45.4341 348.21C44.0841 349.08 45.3341 351.24 46.6941 350.37C86.4841 324.9 119.884 292.25 149.594 255.75C179.024 219.57 207.654 182.71 229.644 141.42C230.404 140 228.244 138.74 227.484 140.16Z" fill="#61A31A"/>
<path d="M146.864 194.12C149.164 204.43 150.204 214.74 150.314 225.29C150.414 235.36 147.674 245.18 148.314 255.29C148.364 256.14 149.064 256.66 149.894 256.5C166.454 253.27 183.304 253.39 200.064 252.04C201.664 251.91 201.674 249.41 200.064 249.54C190.394 250.32 180.694 250.65 171.014 251.27C167.314 251.51 163.584 251.83 159.904 252.33C155.084 252.98 150.574 255.37 150.664 248.97C150.784 239.82 152.874 230.86 152.774 221.66C152.674 212.14 151.344 202.73 149.264 193.46C148.914 191.88 146.504 192.55 146.864 194.12Z" fill="#61A31A"/>
<path d="M197.854 171.96C196.864 178.2 196.354 184.47 196.314 190.79C196.304 191.75 197.374 192.33 198.194 191.87C203.894 188.69 209.204 184.89 214.694 181.37C216.044 180.5 214.794 178.34 213.434 179.21C207.944 182.74 202.634 186.53 196.934 189.71C197.564 190.07 198.184 190.43 198.814 190.79C198.854 184.7 199.304 178.64 200.274 172.62C200.524 171.05 198.114 170.37 197.854 171.96Z" fill="#61A31A"/>
<path d="M131.364 254.96C130.334 262.21 129.404 269.46 129.814 276.79C129.864 277.66 130.574 278.13 131.394 278C138.724 276.82 145.674 274.13 152.894 272.5C154.464 272.14 153.804 269.73 152.234 270.08C145.014 271.72 138.064 274.41 130.734 275.58C131.264 275.99 131.784 276.39 132.314 276.79C131.914 269.68 132.774 262.65 133.764 255.62C133.994 254.05 131.584 253.37 131.364 254.96Z" fill="#61A31A"/>
<path d="M104.814 227.29C107.214 251.81 108.544 276.24 105.814 300.79C105.734 301.5 106.444 301.99 107.064 302.04C130.214 303.81 153.474 301.83 176.564 304.54C178.164 304.73 178.144 302.23 176.564 302.04C165.004 300.68 153.444 300.43 141.814 300.42C137.734 300.41 108.144 302.3 108.754 296.85C111.314 273.74 109.574 250.35 107.314 227.29C107.154 225.7 104.654 225.69 104.814 227.29Z" fill="#61A31A"/>
<path d="M90.814 273.79C88.804 289.81 86.644 305.75 82.864 321.46C82.654 322.31 83.244 322.95 84.064 323.04C102.374 325.06 120.614 327.38 139.064 327.54C140.674 327.55 140.674 325.05 139.064 325.04C121.854 324.89 104.834 322.87 87.754 320.95C84.664 320.6 89.864 299.08 90.304 296.28C91.474 288.81 92.374 281.29 93.314 273.79C93.514 272.19 91.014 272.21 90.814 273.79Z" fill="#61A31A"/>
<path d="M60.3141 294.29C60.7941 303.8 59.7341 313.18 59.0341 322.65C58.6641 327.64 57.3041 335.56 60.6241 339.98C61.9441 341.73 64.7441 341.72 66.7041 341.95C78.0341 343.24 89.0041 346.61 100.234 348.49C101.804 348.76 102.484 346.35 100.894 346.09C88.5441 344.01 76.3441 341.171 63.9941 339.071C57.7541 338.011 63.1041 300.01 62.8141 294.29C62.7341 292.69 60.2341 292.68 60.3141 294.29Z" fill="#61A31A"/>
</svg>
