<svg width="100" height="100" viewBox="0 0 100 100" fill="none" xmlns="http://www.w3.org/2000/svg">
<path fill-rule="evenodd" clip-rule="evenodd" d="M82.9463 87.5216C75.0737 92.8463 63.681 95.6609 50 95.6609C36.319 95.6609 24.9265 92.8463 17.0537 87.5216C8.3398 81.6279 3.92157 72.7395 3.92157 61.103C3.92157 48.53 9.00941 34.3335 17.5314 23.1271C21.8469 17.4526 26.9324 12.7642 32.2384 9.56863C38.0002 6.09863 43.9763 4.33912 50 4.33912C56.0235 4.33912 61.9996 6.09863 67.7618 9.56863C73.0675 12.7642 78.1531 17.4526 82.4684 23.1271C90.9906 34.3335 96.0784 48.5298 96.0784 61.103C96.0784 72.7395 91.66 81.6279 82.9463 87.5216ZM85.469 20.3333C80.7761 14.1622 75.4492 9.25838 69.6365 5.75758C63.2927 1.93698 56.6859 0 50 0C43.3139 0 36.7075 1.93698 30.3635 5.75758C24.5508 9.25838 19.2239 14.1622 14.5308 20.3333C5.43216 32.298 0 47.539 0 61.103C0 85.8226 18.2243 100 50 100C81.7755 100 100 85.8226 100 61.103C100 47.539 94.568 32.298 85.469 20.3333ZM50.1702 52.9228C45.168 52.9228 41.0984 57.4257 41.0984 62.9607C41.0984 68.4952 45.168 72.9982 50.1702 72.9982C55.1725 72.9982 59.2421 68.4952 59.2421 62.9607C59.2421 57.4257 55.1725 52.9228 50.1702 52.9228ZM43.5336 41.0245C44.0367 39.9634 43.6677 38.6519 42.7086 38.0952C41.7494 37.5383 40.5643 37.947 40.0612 39.0079C37.432 44.5509 32.102 43.6725 31.8528 43.6282C30.7914 43.4282 29.7792 44.2155 29.5926 45.3923C29.4055 46.5723 30.1185 47.697 31.1851 47.904C31.6659 47.9973 32.2412 48.0548 32.8818 48.0548C36.0753 48.0548 40.8788 46.6211 43.5336 41.0245ZM67.147 43.6301C67.0915 43.6405 61.6164 44.6325 58.9484 39.0079C58.4454 37.9474 57.2605 37.5384 56.3011 38.0951C55.3423 38.6521 54.9729 39.9636 55.4762 41.0245C58.1311 46.6215 62.9345 48.0549 66.128 48.0549C66.768 48.0549 67.3441 47.9972 67.8245 47.9039C68.8913 47.697 69.6041 46.5725 69.417 45.3922C69.2302 44.2122 68.2143 43.4238 67.147 43.6301Z" fill="black"/>
</svg>
