<svg width="80" height="43" viewBox="0 0 80 43" fill="none" xmlns="http://www.w3.org/2000/svg">
<path d="M30.2817 0.01198C29.7901 0.0661142 29.3359 0.300491 29.0069 0.669855C28.678 1.03922 28.4975 1.51737 28.5005 2.01198V40.1682C28.4967 40.4333 28.5457 40.6964 28.6445 40.9423C28.7433 41.1883 28.8901 41.4121 29.0761 41.6008C29.2622 41.7896 29.484 41.9394 29.7285 42.0417C29.973 42.144 30.2354 42.1967 30.5005 42.1967C30.7655 42.1967 31.0279 42.144 31.2724 42.0417C31.517 41.9394 31.7387 41.7896 31.9248 41.6008C32.1109 41.4121 32.2576 41.1883 32.3564 40.9423C32.4552 40.6964 32.5042 40.4333 32.5005 40.1682V2.01198C32.5021 1.72988 32.4441 1.45062 32.3302 1.19254C32.2163 0.934454 32.0491 0.703386 31.8395 0.514505C31.63 0.325625 31.3829 0.183202 31.1144 0.0965938C30.8459 0.00998587 30.5621 -0.0188488 30.2817 0.01198ZM49.2817 2.29323C48.7846 2.34785 48.326 2.5867 47.9963 2.96268C47.6666 3.33867 47.4897 3.82452 47.5005 4.32448V37.8557C47.4967 38.1208 47.5457 38.3839 47.6445 38.6298C47.7433 38.8758 47.8901 39.0996 48.0761 39.2883C48.2622 39.4771 48.484 39.6269 48.7285 39.7292C48.973 39.8315 49.2354 39.8842 49.5005 39.8842C49.7655 39.8842 50.0279 39.8315 50.2724 39.7292C50.5169 39.6269 50.7387 39.4771 50.9248 39.2883C51.1109 39.0996 51.2576 38.8758 51.3564 38.6298C51.4552 38.3839 51.5042 38.1208 51.5005 37.8557V4.32448C51.5066 4.03977 51.4519 3.75703 51.3399 3.49517C51.228 3.23332 51.0614 2.99838 50.8514 2.80609C50.6413 2.61379 50.3926 2.46856 50.1219 2.38011C49.8512 2.29167 49.5648 2.26205 49.2817 2.29323ZM20.9692 4.73073C20.7066 4.73483 20.4473 4.79062 20.2062 4.89492C19.9651 4.99922 19.747 5.14998 19.5641 5.3386C19.3813 5.52722 19.2374 5.75 19.1407 5.99423C19.044 6.23845 18.9964 6.49933 19.0005 6.76198V35.4182C18.9967 35.6833 19.0457 35.9464 19.1445 36.1923C19.2433 36.4383 19.3901 36.6621 19.5761 36.8508C19.7622 37.0396 19.984 37.1894 20.2285 37.2917C20.473 37.394 20.7354 37.4467 21.0005 37.4467C21.2655 37.4467 21.5279 37.394 21.7724 37.2917C22.017 37.1894 22.2387 37.0396 22.4248 36.8508C22.6109 36.6621 22.7576 36.4383 22.8564 36.1923C22.9552 35.9464 23.0042 35.6833 23.0005 35.4182V6.76198C23.0047 6.49408 22.955 6.22806 22.8544 5.97972C22.7538 5.73139 22.6043 5.50579 22.4149 5.31633C22.2254 5.12687 21.9998 4.97741 21.7515 4.87681C21.5031 4.77621 21.2371 4.72654 20.9692 4.73073V4.73073ZM77.9692 4.73073C77.7066 4.73483 77.4473 4.79062 77.2062 4.89492C76.9651 4.99922 76.747 5.14998 76.5641 5.3386C76.3813 5.52722 76.2374 5.75 76.1407 5.99423C76.044 6.23845 75.9964 6.49933 76.0005 6.76198V35.4182C75.9967 35.6833 76.0457 35.9464 76.1445 36.1923C76.2433 36.4383 76.3901 36.6621 76.5761 36.8508C76.7622 37.0396 76.984 37.1894 77.2285 37.2917C77.473 37.394 77.7354 37.4467 78.0005 37.4467C78.2655 37.4467 78.5279 37.394 78.7724 37.2917C79.017 37.1894 79.2387 37.0396 79.4248 36.8508C79.6109 36.6621 79.7576 36.4383 79.8564 36.1923C79.9552 35.9464 80.0042 35.6833 80.0005 35.4182V6.76198C80.0047 6.49408 79.955 6.22806 79.8544 5.97972C79.7538 5.73139 79.6043 5.50579 79.4149 5.31633C79.2254 5.12687 78.9998 4.97741 78.7515 4.87681C78.5031 4.77621 78.2371 4.72654 77.9692 4.73073ZM39.9692 6.04323C39.7066 6.04733 39.4473 6.10312 39.2062 6.20742C38.9651 6.31172 38.747 6.46248 38.5641 6.6511C38.3813 6.83972 38.2374 7.0625 38.1407 7.30673C38.044 7.55095 37.9964 7.81183 38.0005 8.07448V34.1057C37.9967 34.3708 38.0457 34.6339 38.1445 34.8798C38.2433 35.1258 38.3901 35.3496 38.5761 35.5383C38.7622 35.7271 38.984 35.8769 39.2285 35.9792C39.473 36.0815 39.7354 36.1342 40.0005 36.1342C40.2655 36.1342 40.5279 36.0815 40.7724 35.9792C41.0169 35.8769 41.2387 35.7271 41.4248 35.5383C41.6109 35.3496 41.7576 35.1258 41.8564 34.8798C41.9552 34.6339 42.0042 34.3708 42.0005 34.1057V8.07448C42.0047 7.80658 41.955 7.54056 41.8544 7.29222C41.7538 7.04389 41.6043 6.81829 41.4149 6.62883C41.2254 6.43937 40.9998 6.28991 40.7515 6.18931C40.5031 6.08871 40.2371 6.03904 39.9692 6.04323V6.04323ZM68.4692 11.262C68.2066 11.2661 67.9473 11.3219 67.7062 11.4262C67.4651 11.5305 67.247 11.6812 67.0641 11.8699C66.8813 12.0585 66.7374 12.2813 66.6407 12.5255C66.544 12.7697 66.4964 13.0306 66.5005 13.2932V28.887C66.4967 29.152 66.5457 29.4151 66.6445 29.6611C66.7433 29.907 66.8901 30.1308 67.0761 30.3196C67.2622 30.5083 67.484 30.6582 67.7285 30.7605C67.973 30.8628 68.2354 30.9155 68.5005 30.9155C68.7655 30.9155 69.0279 30.8628 69.2724 30.7605C69.517 30.6582 69.7387 30.5083 69.9248 30.3196C70.1109 30.1308 70.2576 29.907 70.3564 29.6611C70.4552 29.4151 70.5042 29.152 70.5005 28.887V13.2932C70.5047 13.0253 70.455 12.7593 70.3544 12.511C70.2538 12.2626 70.1043 12.037 69.9149 11.8476C69.7254 11.6581 69.4998 11.5087 69.2515 11.4081C69.0031 11.3075 68.7371 11.2578 68.4692 11.262V11.262ZM11.2817 11.6057C10.7846 11.6604 10.326 11.8992 9.99633 12.2752C9.66662 12.6512 9.48971 13.137 9.50046 13.637V28.5432C9.49672 28.8083 9.54568 29.0714 9.6445 29.3173C9.74333 29.5633 9.89005 29.7871 10.0761 29.9758C10.2622 30.1646 10.484 30.3144 10.7285 30.4167C10.973 30.519 11.2354 30.5717 11.5005 30.5717C11.7655 30.5717 12.0279 30.519 12.2724 30.4167C12.517 30.3144 12.7387 30.1646 12.9248 29.9758C13.1109 29.7871 13.2576 29.5633 13.3564 29.3173C13.4552 29.0714 13.5042 28.8083 13.5005 28.5432V13.637C13.5066 13.3523 13.4519 13.0695 13.3399 12.8077C13.228 12.5458 13.0614 12.3109 12.8514 12.1186C12.6413 11.9263 12.3926 11.7811 12.1219 11.6926C11.8512 11.6042 11.5648 11.5745 11.2817 11.6057V11.6057ZM1.78171 12.387C1.28463 12.4416 0.826041 12.6804 0.496331 13.0564C0.16662 13.4324 -0.0102921 13.9183 0.00046311 14.4182V24.5432C-0.00328499 24.8083 0.0456776 25.0714 0.144505 25.3173C0.243333 25.5633 0.390054 25.7871 0.576143 25.9758C0.762232 26.1646 0.983977 26.3144 1.22849 26.4167C1.47301 26.519 1.73541 26.5717 2.00046 26.5717C2.26551 26.5717 2.52792 26.519 2.77243 26.4167C3.01695 26.3144 3.23869 26.1646 3.42478 25.9758C3.61087 25.7871 3.75759 25.5633 3.85642 25.3173C3.95525 25.0714 4.00421 24.8083 4.00046 24.5432V14.4182C4.0066 14.1335 3.95186 13.8508 3.83992 13.5889C3.72798 13.3271 3.56142 13.0921 3.35137 12.8998C3.14132 12.7075 2.89263 12.5623 2.62194 12.4739C2.35124 12.3854 2.06478 12.3558 1.78171 12.387ZM58.7817 13.9807C58.2846 14.0354 57.826 14.2742 57.4963 14.6502C57.1666 15.0262 56.9897 15.512 57.0005 16.012V26.1682C56.9967 26.4333 57.0457 26.6964 57.1445 26.9423C57.2433 27.1883 57.3901 27.4121 57.5761 27.6008C57.7622 27.7896 57.984 27.9394 58.2285 28.0417C58.473 28.144 58.7354 28.1967 59.0005 28.1967C59.2655 28.1967 59.5279 28.144 59.7724 28.0417C60.0169 27.9394 60.2387 27.7896 60.4248 27.6008C60.6109 27.4121 60.7576 27.1883 60.8564 26.9423C60.9552 26.6964 61.0042 26.4333 61.0005 26.1682V16.012C61.0066 15.7273 60.9519 15.4445 60.8399 15.1827C60.728 14.9208 60.5614 14.6859 60.3514 14.4936C60.1413 14.3013 59.8926 14.1561 59.6219 14.0676C59.3512 13.9792 59.0648 13.9495 58.7817 13.9807V13.9807Z" fill="black"/>
</svg>
