<svg width="100" height="100" viewBox="0 0 100 100" fill="none" xmlns="http://www.w3.org/2000/svg">
<path fill-rule="evenodd" clip-rule="evenodd" d="M28.0302 0C36.9325 0 44.8654 4.44247 50 11.37C55.1346 4.44247 63.0675 0 71.9698 0C87.4503 0 100 13.4316 100 30C100 55.9477 68.6102 78.7231 50 100C31.3898 78.7231 0 55.9477 0 30C0 13.4316 12.5497 0 28.0302 0ZM50 92.2057C55.6752 86.1029 61.7171 80.3259 67.5559 74.4314C78.0882 63.7952 94.9399 46.7213 94.9399 30C94.9399 16.4221 84.6562 5.41565 71.9698 5.41565C64.9234 5.41565 58.3368 8.83839 53.9644 14.7351L50 20.082L46.0356 14.7351C41.6632 8.83839 35.0766 5.41565 28.0302 5.41565C15.3438 5.41565 5.06214 16.4221 5.06214 30C5.06214 46.7213 21.9118 63.7952 32.4441 74.4292C38.2829 80.3237 44.3248 86.1006 50 92.2057Z" fill="black"/>
</svg>
