<svg width="100" height="100" viewBox="0 0 100 100" fill="none" xmlns="http://www.w3.org/2000/svg">
<path d="M50 73.3333C45.3851 73.3333 40.8739 71.9648 37.0368 69.4011C33.1995 66.8371 30.2088 63.1928 28.4429 58.9293C26.6768 54.6656 26.2147 49.9741 27.1149 45.448C28.0152 40.9216 30.2376 36.764 33.5008 33.5008C36.764 30.2376 40.9216 28.0152 45.448 27.1149C49.9741 26.2147 54.6656 26.6768 58.9293 28.4429C63.1928 30.2088 66.8371 33.1995 69.4011 37.0368C71.9648 40.8739 73.3333 45.3851 73.3333 50C73.3333 56.1883 70.8749 62.1232 66.4992 66.4992C62.1232 70.8749 56.1883 73.3333 50 73.3333ZM50 33.3333C46.7037 33.3333 43.4813 34.3109 40.7405 36.1421C37.9997 37.9736 35.8635 40.5765 34.6021 43.6219C33.3405 46.6675 33.0104 50.0184 33.6536 53.2515C34.2965 56.4845 35.884 59.4541 38.2149 61.7851C40.5459 64.116 43.5155 65.7035 46.7485 66.3464C49.9816 66.9896 53.3325 66.6595 56.3781 65.3979C59.4235 64.1365 62.0264 62.0003 63.8579 59.2595C65.6891 56.5187 66.6667 53.2963 66.6667 50C66.6667 45.5797 64.9107 41.3405 61.7851 38.2149C58.6595 35.0893 54.4203 33.3333 50 33.3333ZM53.3333 20V3.33333C53.3333 2.44928 52.9821 1.60143 52.3571 0.976309C51.732 0.351189 50.884 0 50 0C49.116 0 48.268 0.351189 47.6429 0.976309C47.0179 1.60143 46.6667 2.44928 46.6667 3.33333V20C46.6667 20.8841 47.0179 21.7319 47.6429 22.357C48.268 22.9821 49.116 23.3333 50 23.3333C50.884 23.3333 51.732 22.9821 52.3571 22.357C52.9821 21.7319 53.3333 20.8841 53.3333 20ZM31.1333 31.1333C31.7541 30.5088 32.1027 29.664 32.1027 28.7835C32.1027 27.9027 31.7541 27.0579 31.1333 26.4333L19.3667 14.6333C18.739 14.0057 17.8877 13.653 17 13.653C16.1123 13.653 15.261 14.0057 14.6333 14.6333C14.0057 15.261 13.653 16.1123 13.653 17C13.653 17.8877 14.0057 18.739 14.6333 19.3667L26.4333 31.1667C27.0579 31.7875 27.9027 32.136 28.7835 32.136C29.664 32.136 30.5088 31.7875 31.1333 31.1667V31.1333ZM23.3333 50C23.3333 49.116 22.9821 48.268 22.357 47.6429C21.7319 47.0179 20.8841 46.6667 20 46.6667H3.33333C2.44928 46.6667 1.60143 47.0179 0.976309 47.6429C0.351189 48.268 0 49.116 0 50C0 50.884 0.351189 51.732 0.976309 52.3571C1.60143 52.9821 2.44928 53.3333 3.33333 53.3333H20C20.8841 53.3333 21.7319 52.9821 22.357 52.3571C22.9821 51.732 23.3333 50.884 23.3333 50ZM19.3667 85.3667L31.1667 73.5667C31.7128 72.9291 31.9981 72.1088 31.9656 71.2699C31.9333 70.4309 31.5856 69.6352 30.992 69.0413C30.3981 68.4477 29.6024 68.1 28.7635 68.0677C27.9245 68.0352 27.1043 68.3205 26.4667 68.8667L14.6333 80.6333C14.2844 80.9323 14.001 81.3 13.8009 81.7133C13.6008 82.1269 13.4884 82.5773 13.4707 83.0365C13.4529 83.4955 13.5303 83.9533 13.6979 84.3811C13.8655 84.8088 14.1197 85.1973 14.4445 85.5221C14.7694 85.8469 15.1578 86.1013 15.5856 86.2688C16.0133 86.4363 16.4711 86.5136 16.9302 86.496C17.3893 86.4781 17.8397 86.3659 18.2532 86.1659C18.6668 85.9656 19.0345 85.6824 19.3333 85.3333L19.3667 85.3667ZM53.3333 96.6667V80C53.3333 79.116 52.9821 78.268 52.3571 77.6429C51.732 77.0179 50.884 76.6667 50 76.6667C49.116 76.6667 48.268 77.0179 47.6429 77.6429C47.0179 78.268 46.6667 79.116 46.6667 80V96.6667C46.6667 97.5507 47.0179 98.3987 47.6429 99.0237C48.268 99.6488 49.116 100 50 100C50.884 100 51.732 99.6488 52.3571 99.0237C52.9821 98.3987 53.3333 97.5507 53.3333 96.6667ZM85.3667 85.3667C85.9875 84.7421 86.336 83.8973 86.336 83.0168C86.336 82.136 85.9875 81.2912 85.3667 80.6667L73.5667 68.8667C72.9291 68.3205 72.1088 68.0352 71.2699 68.0677C70.4309 68.1 69.6352 68.4477 69.0413 69.0413C68.4477 69.6352 68.1 70.4309 68.0677 71.2699C68.0352 72.1088 68.3205 72.9291 68.8667 73.5667L80.6667 85.3667C81.2912 85.9875 82.136 86.336 83.0168 86.336C83.8973 86.336 84.7421 85.9875 85.3667 85.3667ZM100 50C100 49.116 99.6488 48.268 99.0237 47.6429C98.3987 47.0179 97.5507 46.6667 96.6667 46.6667H80C79.116 46.6667 78.268 47.0179 77.6429 47.6429C77.0179 48.268 76.6667 49.116 76.6667 50C76.6667 50.884 77.0179 51.732 77.6429 52.3571C78.268 52.9821 79.116 53.3333 80 53.3333H96.6667C97.5507 53.3333 98.3987 52.9821 99.0237 52.3571C99.6488 51.732 100 50.884 100 50ZM73.5667 31.1333L85.3667 19.3333C85.9128 18.6957 86.1981 17.8754 86.1656 17.0365C86.1333 16.1976 85.7856 15.4018 85.192 14.8081C84.5981 14.2145 83.8024 13.8667 82.9635 13.8343C82.1245 13.8019 81.3043 14.0873 80.6667 14.6333L68.8667 26.4333C68.5176 26.7323 68.2344 27.1 68.0341 27.5133C67.8341 27.9269 67.7219 28.3773 67.704 28.8365C67.6864 29.2955 67.7637 29.7533 67.9312 30.1811C68.0987 30.6088 68.3531 30.9973 68.6779 31.3221C69.0027 31.6469 69.3912 31.9013 69.8189 32.0688C70.2467 32.2363 70.7045 32.3136 71.1635 32.296C71.6227 32.2781 72.0731 32.1659 72.4867 31.9659C72.9 31.7656 73.2677 31.4824 73.5667 31.1333Z" fill="black"/>
</svg>
