<svg width="102" height="100" viewBox="0 0 102 100" fill="none" xmlns="http://www.w3.org/2000/svg">
<path d="M50.6755 0.000427192C44.0207 0.00042721 37.4311 1.29354 31.2828 3.80628C25.1346 6.31901 19.5482 10.0021 14.8425 14.645C10.1368 19.2879 6.40411 24.7996 3.85743 30.8659C1.31075 36.9321 -8.57028e-06 43.4341 0 50.0002C2.03187e-05 63.261 5.33905 75.9787 14.8426 85.3554C24.3461 94.7322 37.2356 100 50.6755 100C62.4526 99.9912 73.8588 95.9353 82.934 88.5295C92.0093 81.1237 98.1869 70.8305 100.405 59.4185L72.5895 84.6933C72.2429 85.0055 71.7904 85.1784 71.3211 85.1777H54.4293V85.185C54.4293 87.2369 52.7551 88.8887 50.6755 88.8887C48.596 88.8887 46.9218 87.2369 46.9218 85.185V85.1777H43.1681C42.9192 85.1814 42.6721 85.1363 42.4411 85.0449C42.2101 84.9535 41.9999 84.8178 41.8226 84.6455C41.6453 84.4731 41.5045 84.2675 41.4084 84.041C41.3123 83.8145 41.2628 83.5714 41.2628 83.3259C41.2628 83.0803 41.3123 82.8372 41.4084 82.6107C41.5045 82.3842 41.6453 82.179 41.8226 82.0067C41.9999 81.8344 42.2101 81.6982 42.4411 81.6068C42.6721 81.5154 42.9192 81.4703 43.1681 81.474H46.9218C46.9256 79.4255 48.5985 77.7775 50.6755 77.7775C52.7526 77.7775 54.4253 79.4255 54.4293 81.474H70.588L101.212 53.6386C101.303 52.4278 101.349 51.2139 101.351 49.9998C101.351 43.4337 100.04 36.9321 97.4937 30.8659C94.947 24.7996 91.2143 19.2875 86.5086 14.6446C81.8029 10.0016 76.2165 6.31858 70.0683 3.80585C63.92 1.29312 57.3304 0 50.6756 0L50.6755 0.000427192ZM50.6755 31.4815C53.1403 31.4815 55.5809 31.9605 57.858 32.8912C60.1352 33.8218 62.2042 35.1859 63.947 36.9055C65.6899 38.6251 67.0724 40.6668 68.0156 42.9135C68.9588 45.1603 69.4443 47.5683 69.4443 50.0002C69.4442 54.9116 67.4668 59.6216 63.947 63.0945C60.4272 66.5674 55.6533 68.5185 50.6755 68.5185C45.6978 68.5185 40.9239 66.5674 37.4041 63.0945C33.8843 59.6216 31.9068 54.9116 31.9068 50.0002C31.9068 47.5683 32.3923 45.1603 33.3355 42.9135C34.2787 40.6668 35.6612 38.6251 37.404 36.9055C39.1469 35.1859 41.2159 33.8218 43.4931 32.8912C45.7702 31.9605 48.2108 31.4815 50.6755 31.4815V31.4815Z" fill="black"/>
<path d="M60.0599 49.9998C60.0599 51.2157 59.8171 52.4195 59.3455 53.5429C58.8739 54.6663 58.1827 55.6871 57.3113 56.5469C56.4398 57.4067 55.4053 58.0886 54.2667 58.5539C53.1282 59.0192 51.9079 59.2587 50.6755 59.2587C49.4431 59.2587 48.2228 59.0192 47.0843 58.5539C45.9457 58.0886 44.9112 57.4067 44.0397 56.5469C43.1683 55.6871 42.4771 54.6663 42.0055 53.5429C41.5339 52.4195 41.2911 51.2157 41.2911 49.9998C41.2912 47.5441 42.2799 45.1886 44.0398 43.4522C45.7997 41.7158 48.1866 40.7404 50.6755 40.7404C53.1644 40.7404 55.5513 41.7158 57.3112 43.4522C59.0711 45.1886 60.0598 47.5441 60.0599 49.9998V49.9998Z" fill="black"/>
</svg>
