<svg width="90" height="100" viewBox="0 0 90 100" fill="none" xmlns="http://www.w3.org/2000/svg">
<path d="M86.67 92.7369C92.4997 85.0302 90.4776 74.4124 82.1492 69.0169C78.5061 66.6557 74.2567 65.6869 70.1405 65.988L70.1393 65.978C63.959 66.4424 57.5746 64.9891 52.0992 61.4413C47.5244 58.4779 42.2975 53.349 42.2975 49.999C42.2975 46.6479 47.5208 41.5201 52.0908 38.5568C57.5674 35.0101 63.9518 33.5568 70.1309 34.019L70.1321 34.009C74.2483 34.3135 78.4965 33.3446 82.1432 30.9812C90.468 25.5879 92.4924 14.9679 86.6628 7.26339C80.8332 -0.441071 69.3576 -2.3133 61.0304 3.08116C57.3861 5.44228 54.9486 8.80673 53.8499 12.4878L53.8391 12.4867C52.1941 18.0179 48.5366 23.0734 43.0612 26.6212C37.1427 30.4557 30.1627 31.8434 23.5262 31.0101L23.5274 31.019C18.5359 30.3823 13.2838 31.4201 8.83139 34.3057C-0.536857 40.3746 -2.81228 52.3202 3.74622 60.988C8.3535 67.0769 16.0935 69.9224 23.5394 68.9769L23.5346 68.9813V68.9891C30.1699 68.1569 37.1487 69.5446 43.0684 73.378C48.545 76.9258 52.2025 81.9802 53.8475 87.5113H53.8583C54.9582 91.1925 57.3945 94.5569 61.04 96.9191C69.3636 102.314 80.8404 100.44 86.67 92.7369Z" fill="black"/>
</svg>
