<svg width="295" height="298" viewBox="0 0 295 298" fill="none" xmlns="http://www.w3.org/2000/svg">
<path d="M115.24 1.57328C85.8795 6.66328 57.0595 27.4033 52.3195 56.8233C92.8295 63.1033 133.34 69.3833 173.85 75.6633C161.46 88.4033 141.399 90.3233 124.009 86.7033C106.629 83.0733 90.5495 74.8533 73.4795 69.9533C56.3995 65.0533 36.8495 63.8933 21.9595 73.5933C8.2895 82.5033 1.19945 99.1833 0.159448 115.473C-0.880552 131.763 3.32947 147.903 8.05947 163.533C22.5195 148.363 46.4395 148.693 67.2995 150.623C88.1695 152.563 111.639 154.263 127.549 140.623C118.239 152.383 102.789 157.423 87.9495 159.613C73.1095 161.793 57.8294 161.793 43.5194 166.293C29.2094 170.783 15.4395 181.173 12.5295 195.893C10.6595 205.333 13.5095 215.063 17.0695 224.013C28.3295 252.323 47.1994 277.573 71.1594 296.393C91.1194 295.343 111.339 294.243 130.329 288.023C149.319 281.793 167.24 269.713 176.12 251.823C190.88 222.083 177.409 186.713 163.929 156.363C187.239 182.203 195.009 221.073 183.429 253.883C203.929 250.083 222.3 236.153 231.5 217.443C240.7 198.723 240.5 175.673 230.98 157.113C224.94 145.343 215.509 135.503 210.009 123.473C204.509 111.433 204.179 95.2333 214.449 86.8933C209.329 100.503 215.219 115.893 223.689 127.703C232.159 139.523 243.22 149.453 250.49 162.043C257.75 174.633 260.419 191.603 251.559 203.123C271.079 187.943 292.229 169.893 294.329 145.253C295.759 128.443 287.7 112.263 277.99 98.4633C268.27 84.6733 256.629 72.0933 249.169 56.9533C237.919 34.1033 232.139 2.26328 200.529 3.72328C172.169 5.02328 143.76 -3.36672 115.24 1.57328Z" fill="#4A9E2F"/>
<path d="M70.5795 296.903C101.669 252.473 132.779 207.923 159.169 160.553C185.559 113.183 207.229 62.7533 218.229 9.65326" stroke="#2C3142" stroke-linecap="round" stroke-linejoin="round"/>
<path d="M206.129 245.113C215.409 225.053 217.439 201.723 211.759 180.363C208.169 166.853 201.669 154.313 196.499 141.323C191.339 128.333 187.429 114.313 189.409 100.473" stroke="#2C3142" stroke-linecap="round" stroke-linejoin="round"/>
<path d="M253.789 200.603C266.759 182.023 273.929 158.373 268.659 136.323C263.049 112.843 244.749 94.8233 232.729 73.8733C224.159 58.9433 218.719 42.2233 216.849 25.1033" stroke="#2C3142" stroke-linecap="round" stroke-linejoin="round"/>
<path d="M2.85944 135.633C12.6094 118.623 32.1694 108.963 51.6594 106.913C71.1494 104.863 90.7295 109.443 109.439 115.273C117.129 117.663 124.969 120.313 133.019 119.893C142.579 119.393 151.329 114.653 159.709 110.023C173.899 102.163 188.799 93.6332 196.779 79.5132" stroke="#2C3142" stroke-linecap="round" stroke-linejoin="round"/>
<path d="M66.3195 27.7033C94.5795 21.9233 123.949 21.6033 152.339 26.7733C172.619 30.4733 193.509 36.9333 213.409 31.5233" stroke="#2C3142" stroke-linecap="round" stroke-linejoin="round"/>
<path d="M25.8495 243.893C39.5895 227.793 58.2994 216.013 78.7594 210.583C90.3594 207.503 102.429 206.433 114.049 203.423C125.679 200.423 137.279 195.103 144.549 185.543" stroke="#2C3142" stroke-linecap="round" stroke-linejoin="round"/>
<path d="M121.179 290.193C135.619 270.793 141.009 244.943 135.529 221.403C134.039 214.963 131.84 207.913 134.87 202.053" stroke="#2C3142" stroke-linecap="round" stroke-linejoin="round"/>
</svg>
